<!--?xml version="1.0" standalone="no"?-->
              <svg id="sw-js-blob-svg" viewBox="0 0 100 100" xmlns="http://www.w3.org/2000/svg" version="1.1">
                    <defs> 
                        <linearGradient id="sw-gradient" x1="0" x2="1" y1="1" y2="0">
                            <stop id="stop1" stop-color="rgba(190.183, 41.942, 41.942, 1)" offset="0%"></stop>
                            <stop id="stop2" stop-color="rgba(249.379, 108.262, 35.286, 1)" offset="100%"></stop>
                        </linearGradient>
                    </defs>
                <path fill="url(#sw-gradient)" d="M17.2,-20.6C22.7,-15.8,28,-10.8,32.2,-3.3C36.4,4.3,39.5,14.5,35.8,20.4C32.1,26.4,21.5,28.2,13.2,27.4C4.9,26.6,-1.2,23.2,-8.4,21.3C-15.5,19.4,-23.9,19,-30,14.4C-36,9.8,-39.9,1.1,-38.4,-6.7C-37,-14.4,-30.2,-21.2,-22.9,-25.6C-15.6,-30,-7.8,-32.2,-1,-31C5.8,-29.8,11.6,-25.3,17.2,-20.6Z" width="100%" height="100%" transform="translate(50 50)" stroke-width="0" style="transition: all 0.3s ease 0s;"></path>
              </svg>